<svg version="1.1" id="svg1" xmlns:xlink="http://www.w3.org/1999/xlink" xmlns="http://www.w3.org/2000/svg" viewBox="-150 -150 3500 2772.7">
 <path d="M2 0h3124v1704h-748v122H734v-125H0Z" id="floor"/>
 <path d="M1829 983h552v721h744V3h-713v715h-583Z" id="_213"/>
  <path d="M4 3h715v710H519v140H3Z" id="_206"/>
  <path d="M723 3h903v321h-143v389H724Z" id="_208"/>
  <path d="M2376 1823V989h-547v654h-131v179z" id="_205"/>
  <path d="M3 856h984v970H736v-127H3Z" id="_201"/>
  <path d="M996 854h300v788h133v184H996Z" id="_203"/>
  <path d="M1635 4h766v708h-909V331h144z" id="_210"/>
  
  
</svg>
