<svg version="1.1" id="svg1" xmlns:xlink="http://www.w3.org/1999/xlink" xmlns="http://www.w3.org/2000/svg" viewBox="-150 -150 3500 2772.7">
  <path d="M1 0v1701h734v128h1654v-126h742V0Z" id="floor"/>
  <path d="M1 1v959h607V718h-80V0H1Z" id="_102"/>
  <path d="M530 1v713h913V0H530Z" id="_106"/>
  <path d="M1688 1v490h274v223h235V387h-124V1z" id="_108"/>
  <path d="M2078 126v255h117V125h-117z" id="_112A"/>
  <path d="M2077 3v116h125v595h928V1H2077Z" id="_112"/>
  <path d="M1126 969v200h-122v659h260V970h-138z" id="_105"/>
  <path d="M738 969v858h262v-658H889V969Z" id="_107"/>
  <path d="M0 968v733h735V968Z" id="_101"/>
  <path d="M1870 1180h516v649h-516Z" id="_unexcavated1"/>
  <path d="M2389 721v982h741V720h-741z" id="_113"/>
  
  <path d="M1688 498h267v216h-267Z" id="_110"/>
</svg>
