<svg version="1.1" id="svg1" xmlns="http://www.w3.org/2000/svg" viewBox="-20 -40 3625.4 2174.8">
  <path d="M168 1418v384h255v186h2640v-186h255v-384h132v-161h-134V303h-252V120H1932V16h-188v107H423v181H170v955H25v162h143Z" id="floor"/>
  <path d="M170 1063h246v166H172v-166z" id="_422"/>
  <path d="M313 964h98v71h-97v-71z" id="_423A"/>
  <path d="M168 920h135v114H171V920Z" id="_423B"/>
  <path d="M170 798v116h195V802H170Z" id="_423C"/>
  <path d="M168 683h142v108H171V683Z" id="_423D"/>
  <path d="M317 683v66h83v-63h-83z" id="_423E"/>
  <path d="M168 479h58v78h136v98H168Z" id="_424"/>
  <path d="M237 473v74h120v-73H237Z" id="_424M"/>
  <path d="M170 305v168h56v-11h87V304H166v1z" id="_424A"/>
  <path d="M317 303h89v71h-88v-71z" id="_424B"/>
  <path d="M422 123h162v163H425V123Z" id="_431"/>
  <path d="M613 119h355v175H616V119Z" id="_432"/>
  <path d="M992 122h227v77h-59v93H995V122Z" id="_433"/>
  <path d="M1223 125v74h123v-76h-123z" id="_433A"/>
  <path d="M1166 204h183v87h-184v-87z" id="_433M"/>
  <path d="M1375 297h350V123h-348v174z" id="_434"/>
  <path d="M1740 14v194h60v-25h137V17h-197z" id="_435A"/>
  <path d="M1799 412h140V189h-132v223z" id="_435B"/>
  <path d="M1807 417v59h130v-55h-130z" id="_435C"/>
  <path d="M1946 118v85h165v-83h-165z" id="_435D"/>
  <path d="M1945 211h166v79h-165v-79z" id="_435M"/>
  <path d="M2138 119v180h350V122h-350z" id="_436"/>
  <path d="M2518 120h104v126h-101V120Z" id="_437A"/>
  <path d="M2631 120v123h126V120Z" id="_437B"/>
  <path d="M2766 120h107v130h-108V120Z" id="_437C"/>
  <path d="M2901 119h162v170h-159V119Z" id="_438"/>
  <path d="M3079 300v67h89v-63h-89z" id="_441A"/>
  <path d="M3175 301v169h139V303h-139z" id="_441B"/>
  <path d="M3125 477v68h120v-70h-120z" id="_441M"/>
  <path d="M3117 555v101h200V481h-58v75h-142z" id="_441"/>
  <path d="M3075 682h90v71h-90z" id="_442A"/>
  <path d="M3175 684v74h-23v36h162V686h-139z" id="_442B"/>
  <path d="M3118 802v114h196V802z" id="_442C"/>
  <path d="M3174 924v110h143V923h-143z" id="_442D"/>
  <path d="M3072 965h93v71h-89v-71z" id="_442E"/>
  <path d="M3062 1063h253v162h-251v-162z" id="_443"/>
  <path d="M3062 1445h255v353h-250v-353z" id="_444"/>
  <path d="M2898 1809h164v176h-162v-176z" id="_451"/>
  <path d="M2518 1803h353v183h-352v-183z" id="_452"/>
  <path d="M2413 1813h78v95h-74v-95z" id="_453A"/>
  <path d="M2370 1914h121v75h-116v-75z" id="_453B"/>
  <path d="M2251 1858h120v129h-116v-129z" id="_453C"/>
  <path d="M2138 1913h108v72h-112v-72z" id="_453E"/>
  <path d="M2127 1815h81v92h-74v-92z" id="_435E"/>
  <path d="M1755 1803h352v183h-348v-183z" id="_454"/>
  <path d="M1375 1801h354v184h-355v-184z" id="_455"/>
  <path d="M994 1804h352v179H991v-172h3z" id="_456"/>
  <path d="M893 1813h73v95h-73v-95z" id="_457A"/>
  <path d="M965 1914H852v72h116v-72z" id="_457B"/>
  <path d="M727 1856h119v131H730v-131z" id="_457C"/>
  <path d="M612 1911h109v75H611v-75z" id="_457D"/>
  <path d="M612 1812h71v92h-71z" id="_457E"/>
  <path d="M424 1818h161v168H425v-168z" id="_458"/>
  <path d="M170 1448h252v354H171v-354z" id="_421"/>
  <path d="M1227 874h138v184h-132V874Z" id="_412"/>
  <path d="M1235 1237h108v180h-105v-180Z" id="_411"/>
  <path d="M1166 1430h197v197h-195v-197z" id="_456M"/>
</svg>
