<svg version="1.1" id="svg1" xmlns="http://www.w3.org/2000/svg" viewBox="-50 -10 2057.6 926.4">
  <path d="M0 0v779h842v117h276V779h840V0Z" id="floor"/>
  <path d="M2 0v490h216V0Z" id="_209B"/>
  <path d="M221 2v319h220V0H221Z" id="_209A"/>
  <path d="M446 0v321h245V0Z" id="_208"/>
  <path d="M694 0v321h337V0Z" id="_207"/>
  <path d="M1034 0v321h228V0Z" id="_207A"/>
  <path d="M1266 0v321h248V0Z" id="_206"/>
  <path d="M1736 325v454h222V325Z" id="_204"/>
  <path d="M1539 457v322h194V457Z" id="_203"/>
  <path d="M673 522v257h169V522Z" id="_211"/>
  <path d="M449 457v322h148V457z" id="_210"/>
  <path d="M0 494v285h446V494Z" id="_209"/>
  <path d="M1518 2v319h439V0h-439z" id="_205"/>
  <path d="M1118 457v322h225V457Z" id="_201"/>
  <path d="M1347 457v322h190V457Z" id="_202"/>
</svg>
