<svg version="1.1" id="svg1" viewBox="0 0 1780.1 1403.8" xmlns="http://www.w3.org/2000/svg">
  <path d="M1086 1188c-7 47-27 85-86 92-58-7-85-38-87-92v-142h-79v9l-90 90H388v49h-93l-121 210H0V433h86V309h362v-50h43V0h169v36h654v329h248v-16h218v796h-694z" id="floor"/>
  <path d="M588 403c11 0 49 7 49 51v59h-49z" id="_205"/>
  <path d="M390 309h58v70h-58z" id="_2023"/>
  <path d="M390 380h58v67h-58Z" id="_2025"/>
  <path d="M250 491h138v99H253v-99z" id="_2033"/>
  <path d="M252 591h137v111H252Z" id="_2037"/>
  <path d="M250 703h139v160H252V703Z" id="_2037A"/>
  <path d="M250 864h139v43H252v-43z" id="_2045"/>
  <path d="M491 0h169v106h-92v56h-37v52h-40z" id="_2017"/>
  <path d="M782 262h264v169H787V262z" id="_2215"/>
  <path d="M557 622c0 71 32 122 33 122l-18 11v18H460V622Z" id="_207"/>
  <path d="M460 775h65v43h-65z" id="_208A"/>
  <path d="M526 775h76v43h-76z" id="_208"/>
  <path d="M462 894h101v58H462Z" id="_210"/>
  <path d="M461 954h102v59H461Z" id="_211"/>
  <path d="M461 1014h102v61H461z" id="_212"/>
  <path d="M461 1077h128v68H461z" id="_213"/>
  <path d="M591 1052h156v-87h86v94l-86 86H591Z" id="_217"/>
  <path d="M696 964h50v86h-50z" id="_216"/>
  <path d="M592 964h102v56h-37l-40-20h-25z" id="_215"/>
  <path d="M592 1001h24l40 20h38v29H592Z" id="_215A"/>
  <path d="M913 455h146l32 33v55h-85v20h-47l-46-46z" id="_253A"/>
  <path d="M1008 544h83v45h-56l-27-26z" id="_253C"/>
  <path d="M1093 544h60v45h-60z" id="_252A"/>
  <path d="m1093 489 31-32h242v61h-48v59h-119v-34h-106z" id="_252"/>
  <path d="M1366 457h210v138h-208V457z" id="_251"/>
  <path d="M1573 457h45v122h-40V457z" id="_251B"/>
  <path d="M1618 457h45v88h-43v-88z" id="_251C"/>
  <path d="M1665 457h115v99h-52v-11h-63z" id="_251D"/>
  <path d="M1696 892h83v50h-83z" id="_230"/>
  <path d="M1609 892h86v50h-86z" id="_229"/>
  <path d="M1534 891h30v51h-28v-51z" id="_227"/>
  <path d="M1383 891h48v16h103v35h-151z" id="_226"/>
  <path d="M1348 892h33v50h-33z" id="_225"/>
  <path d="M1645 1021h50v29h85v95h-137v-124z" id="_240"/>
  <path d="M1514 1021h126v124h-126z" id="_239"/>
  <path d="M1331 1021h126v124h-126z" id="_236"/>
  <path d="M1192 1021h135v124h-135z" id="_235"/>
  <path d="M1010 1021h128v123h-128z" id="_232"/>
  <path d="M1260 889h44v53h-44z" id="_223"/>
  <path d="M1224 889v18h35v35h-89v-53z" id="_222"/>
  <path d="M1098 909h71v33h-71z" id="_220"/>
  <path d="M662 36h518v225H786v158h-88v-97h-36v-70h-29v-38h90V74h-61z" id="_2200"/>
  <path d="M1093 365h470v-16h217v106h-656l-31-33z" id="unexcavated6"/>
  <path d="M739 561v-29h137l124 124h780v234h-171V768h-45v122h-30v16h-101v-16h-84V766h-45v122h-45v18h-33v-18h-57v20h-72v11h-52V744h-31v18h-14v157c-275 0-358-216-358-358h97z" id="unexcavated7"/>
  <path d="M174 1404H0V433h117v58h134v418h138v285h-94z" id="unexcavated1"/>
  <path d="M389 308v140H221V309h168z" id="_2027"/>
  <path d="M586 403c-17 0-48 8-48 51h-26v59h74z" id="_203"/>
</svg>
