<svg version="1.1" id="svg1" viewBox="0 0 1890.9 1558.3" xmlns="http://www.w3.org/2000/svg">
  <path d="M0 550h347V420l30-50v-48l27-46V0h92v79h1395v327h-40v123h38v42h-872v77l-44 26H642v-36h-10v-21h-11v-17H485v9h-4v19h-4v20h-6v30H366v682l-115 198H96v-92H46v-29c-46-61-52-128 0-203V912H0z" id="floor" />
  <path d="M47 1212h130v52h19v156h-19v46H45v-26h-2c-39-66-48-131 0-200h4z" id="_3051" />
  <path d="M47 1065h130v50h6v56h-6v40H47Z" id="_3045" />
  <path d="M42 915h135v50h6v57h-6v41H46V915Z" id="_3039" />
  <path d="M0 801h42v-38h131v52h8v59h-4v38H0z" id="_3033" />
  <path d="M2 715h73v17h12v29H0v-46z" id="_3029" />
  <path d="M101 715h72v46H88v-29h13z" id="_3030" />
  <path d="M1790 184h101v88h-99v-88z" id="_3280" />
  <path d="M1789 273h65v46h-48v-21h-15v-25z" id="_3278" />
  <path d="M1808 320h46v44h-63v-23h15v-21z" id="_3276" />
  <path d="M1857 273h34v82h-36v-82z" id="_3280A" />
  <path d="M1665 527h75v44h-73v-44z" id="_3267" />
  <path d="M1577 527h88v44h-86v-44z" id="_3265" />
  <path d="M1491 527h86v44h-86z" id="_3259" />
  <path d="M1312 527h176v44h-174v-44z" id="_3243" />
  <path d="M1235 527h77v44h-79v-44z" id="_3239" />
  <path d="M1172 527h58v44h-58z" id="_3235" />
  <path d="M1617 79h54v64h-54z" id="_3165" />
  <path d="M1558 79h58v64h-60V79Z" id="_3159" />
  <path d="M1492 79h63v64h-63z" id="_3157" />
  <path d="M1443 79h48v64h-46V79Z" id="_3151" />
  <path d="M1327 79h48v64h-46V79Z" id="_3145" />
  <path d="M1266 79h61v65h-59V79Z" id="_3139" />
  <path d="M1212 79h55v64h-55V77Z" id="_3135" />
  <path d="M1235 185h534v282h-525V185z" id="_3288" />
  <path d="M1163 185h79v52h-81v-52z" id="_3307" />
  <path d="M1161 238h81v61h-81z" id="_3311" />
  <path d="M1031 79h63v64h-61V79Z" id="_3129" />
  <path d="M975 79h56v64h-54V79Z" id="path2994" />
  <path d="M914 79h62v64h-62Z" id="_3123" />
  <path d="M855 79h57v64h-57Z" id="_3119" />
  <path d="M733 79h120v64H733Z" id="_3113" />
  <path d="M615 79h115v65H615z" id="_3111" />
  <path d="M618 185h157v127H616V185z" id="_3112" />
  <path d="M775 185h161v127H777V185z" id="_3116" />
  <path d="M939 184h157v128H937V184Z" id="_3130" />
  <path d="M1012 346h82v54h-82z" id="_3319A" />
  <path d="M1014 402h80v56h-82v-56z" id="_3319" />
  <path d="M1015 460h80v65h-82v-65Z" id="_3321" />
  <path d="M978 526h117v44H976v-44z" id="_3200A" />
  <path d="M949 572h68v75l-41 27h-27z" id="_3225.02" />
  <path d="M892 572h55v102h-55z" id="_3225.01" />
  <path d="M777 572h113v102H773V572Z" id="_3125" />
  <path d="M734 572h38v102h-36V572Z" id="_3213" />
  <path d="M772 346h238v178h-35v46H772Z" id="_3226" />
  <path d="M613 347h157v176H613Z" id="_3206" />
  <path d="M404 0h93v78h43v56h-61v65h-21v301h-41v178h-51l-1 679-112 201-93 1 117-203h-38V550h107V419l31-49v-50l27-48z" id="unexcavated2" />
  <path d="M2 550h74v113H0V550z" id="unexcavated3" />
  <path d="M1376 79h67v64h-67z" id="_3147" />
  <path d="M1670 79h99v64h-96V79Z" id="_3167" />
  <path d="M734 674h-92v-36h-10v-21h-11v-17h-8v-76h158v47h-37v103z" id="_3211" />
</svg>
