<svg version="1.1" id="svg1" xmlns="http://www.w3.org/2000/svg" viewBox="0 0 2888.6 2364.7">
  <path d="M139 2340h89l133-229V995h296l87-151h2057V196h57V83H750V1H620v395l-41 71v76l-41 68v204H1v652l67 116v604h71z" id="floor"/>
  <path d="M2817 82h42v112h-57v-38h13V82Z" id="_4175"/>
  <path d="M2506 82h99v102h-99z" id="_4167"/>
  <path d="M2442 82h61v102h-61z" id="_4165"/>
  <path d="M2384 82h55v102h-55z" id="_4161"/>
  <path d="M2326 82h55v102h-55z" id="_4159"/>
  <path d="M2250 82h73v102h-73z" id="_4155"/>
  <path d="M2061 82h53v101h-56V82Z" id="_4147"/>
  <path d="M2117 83h58v100h-58z" id="_4149"/>
  <path d="M2175 82h72v101h-69V82Z" id="_4153"/>
  <path d="M1991 82h63v101h-63z" id="_4143"/>
  <path d="M1929 82h58v102h-58z" id="_4141"/>
  <path d="M1836 82h89v102h-92V82Z" id="_4137"/>
  <path d="M1651 745h96v98h-92v-98z" id="_4231"/>
  <path d="M1564 745h86v98h-89v-98z" id="_4229"/>
  <path d="M1472 745h85v99h-85z" id="_4225"/>
  <path d="M1378 745h90v98h-90z" id="_4223"/>
  <path d="M1284 745h89v98h-84v-98z" id="_4219"/>
  <path d="M1196 745h88v98h-85v-98z" id="_4217"/>
  <path d="M1016 744h88v99h-88z" id="_4211"/>
  <path d="M1471 82h180v102h-180Z" id="_4129"/>
  <path d="M1289 82h179v102h-179z" id="_4119"/>
  <path d="M1170 82h116v102h-120V82Z" id="_4115"/>
  <path d="M1105 82h58v102h-58z" id="_4113"/>
  <path d="M1013 82h89v102h-89z" id="_4111"/>
  <path d="M908 82h102v102H908Z" id="_4107"/>
  <path d="M1480 248h171v189h-174V248Z" id="_4126"/>
  <path d="M1391 248h83v189h-86V248Z" id="_4124"/>
  <path d="M1208 248h177v190h-177z" id="_4118"/>
  <path d="M1067 248h137v190h-134V248Z" id="_4114"/>
  <path d="M921 248h145v190H921Z" id="_4108"/>
  <path d="M1436 495h219v189h-219Z" id="_4226"/>
  <path d="M1300 495h130v189h-130z" id="_4222"/>
  <path d="M1070 495h225v190h-225Z" id="_4214"/>
  <path d="M920 495h145v189H920Z" id="_4208"/>
  <path d="M831 249h85v94h-85z" id="_4104"/>
  <path d="M834 346h82v92h-85v-92z" id="_4102"/>
  <path d="M621 2h127v179H621Z" id="_4003"/>
  <path d="M621 183h127v66H621Z" id="_4005"/>
  <path d="M686 252h62v144h-62z" id="_4007"/>
  <path d="M621 251h63v145h-63z" id="_4009"/>
  <path d="M660 678h83v48h-83z" id="_4011.06"/>
  <path d="M620 398h37v141h-78v-68z" id="_4013"/>
  <path d="M581 542h76v105H540v-36z" id="_4015"/>
  <path d="M539 650h117v63H539Z" id="_4017"/>
  <path d="M539 715h117v14h9v88H539Z" id="_4019"/>
  <path d="M660 398h87v277h-87z" id="_4011.01"/>
  <path d="M139 1124h222v226H139Z" id="_4034"/>
  <path d="M142 1355h219v221H139v-221z" id="_4040"/>
  <path d="M4 815h104v168H58v485H1V815Z" id="unexcavated6"/>
  <path d="M142 1581h219v531l-45 73H68v-544h71v-60z" id="_4050"/>
  <path d="M922 744h91v99h-93v-99z" id="_4207"/>
  <path d="M1108 745h87v98h-87z" id="_4213"/>
  <path d="M1756 82h35v102h-35V82Z" id="_4133"/>
  <path d="M1794 82h36v102h-36V82Z" id="_4135"/>
  <path d="m140 1119 220-124v123z" id="unexcavated1"/>
  <path d="M1709 248v218h132v378h789v-76h170V248H1709Z" id="_4140"/>
</svg>
