<svg version="1.1" id="svg1" xmlns:xlink="http://www.w3.org/1999/xlink" xmlns="http://www.w3.org/2000/svg" viewBox="0 0 2056 1588.7">
  <path d="M13 1587V979l64-111V760l65-111V9h205v190h160v-24h1423v160h-22v84h150l-1 681h-149v245H458v-25H349v27l-136 235H13" id="floor"/>
  <path d="M507 175v165h107V175Z" id="_6105"/>
  <path d="M719 175v165h-99V175Z" id="_6107"/>
  <path d="M725 340V175h187v165z" id="_6111"/>
  <path d="M918 340V175h96v165z" id="_6113"/>
  <path d="M1019 175h187v165h-187z" id="_6117"/>
  <path d="M1305 175h-94v165h94z" id="_6119"/>
  <path d="M1310 340V175h187v165z" id="_6123"/>
  <path d="M1502 175h97v165h-97z" id="_6125"/>
  <path d="M1604 175h192v165h-192z" id="_6129"/>
  <path d="M342 9H142v304h205V9Z" id="_6003"/>
  <path d="M347 315H142v111h205z" id="_6005"/>
  <path d="M626 414v306h471l-2-306z" id="_6116"/>
  <path d="M1302 415h228v306h-228z" id="_6124"/>
  <path d="M1102 414h195v306h-197V414z" id="_6118"/>
  <path d="M142 431v108h205V428H142Z" id="_6007"/>
  <path d="M347 542H142v103h205z" id="_6009"/>
  <path d="M346 649H219v140h61v-12h66z" id="_6011"/>
  <path d="M216 868H77V760l65-111h74v205z" id="_6013"/>
  <path d="M16 1093h197V871H76L13 981v112z" id="_6017"/>
  <path d="M621 414H458v153h163Z" id="_6104"/>
  <path d="M458 720V570h163v150z" id="_6012"/>
  <path d="M13 1097h200v110H13Z" id="_6019"/>
  <path d="M13 1210h199v100H13Z" id="_6021"/>
  <path d="M13 1581h200v-267H13Z" id="_6023"/>
  <path d="M1536 414h260v306h-262V414z" id="_6126" fill="#000" fill-opacity="1"/>
  <path d="M1848 538h209V419h-209z" id="_6307"/>
  <path d="M1848 542h209v111h-209z" id="_6309"/>
  <path d="M1848 769h209V658h-209z" id="_6311"/>
  <path d="M1848 869h209v-96h-209Z" id="_6313"/>
  <path d="M683 1179H534v166h149z" id="_6207"/>
  <path d="M831 1179H690v166h141z" id="_6211"/>
  <path d="M981 1179v166H838v-166z" id="_6213"/>
  <path d="M1129 1179H988v166h144v-166z" id="_6217"/>
  <path d="M1280 1179h-141v166h141z" id="_6219"/>
  <path d="M1429 1179h-141v166h143v-166z" id="_6223"/>
  <path d="M1580 1179h-140v166h140z" id="_6225"/>
  <path d="M1737 1179h-148v166h150v-166z" id="_6229"/>
  <path d="M1906 1182v163h-158v-166h158z" id="_6231"/>
  <path d="M621 797h518v308H621z" id="_6208"/>
  <path d="M1487 797h308v306h-308z" id="_6224"/>
  <path d="M1145 797h335v306h-335z" id="_6220"/>
</svg>
