<svg version="1.1" id="svg1" xmlns:xlink="http://www.w3.org/1999/xlink" xmlns="http://www.w3.org/2000/svg" viewBox="0 0 2056 1588.7">
    <path d="M340 7v184h135v-22h1438v160h-25v84h147v678h-147v243H445v-24H340v24l-135 238H6V973l63-108V754l64-110V7Z" id="floor"/>
    <path d="M133 411V7h207v407H133Z" id="_7003"/>
    <path d="M134 637V420h207v220H134Z" id="_7007"/>
    <path d="M204 857H69V752l65-106h70z" id="_7013"/>
    <path d="M204 1077H6V971l64-106h134Z" id="_7017"/>
    <path d="M1572 170h174v165h-174Z" id="_7129"/>
    <path d="M1565 170h-93v165h93z" id="_7125"/>
    <path d="M1262 170h-96v164h96z" id="_7119"/>
    <path d="M1270 170v164h194V170Z" id="_7123"/>
    <path d="M1158 169H988v165h170z" id="_7117"/>
    <path d="M876 169H712v165h164z" id="_7111"/>
    <path d="M979 169h-93v165h93z" id="_7113"/>
    <path d="M702 169h-95v165h95z" id="_7107"/>
    <path d="M597 170H491v164h106z" id="_7105"/>
    <path d="M811 1169H671v165h140z" id="_7211"/>
    <path d="M663 1169H523v165h140z" id="_7207"/>
    <path d="M1113 1169H973v165h140z" id="_7217"/>
    <path d="M821 1169h142v165H821Z" id="_7213"/>
    <path d="M1123 1170h142v164h-142z" id="_7219"/>
    <path d="M1415 1170h-140v164h140z" id="_7223"/>
    <path d="m1424 1170 142-1v165h-142z" id="_7225"/>
    <path d="M1720 1169h-145v164h145z" id="_7229"/>
    <path d="M1727 1169h160v165h-160z" id="_7231"/>
    <path d="M204 1303H6v269h198Z" id="_7023"/>
    <path d="M205 1085H6v211h199Z" id="_7019"/>
    <path d="M619 408h270v304H619Z" id="_7108"/>
    <path d="M614 789h226v304H614Z" id="_7208"/>
    <path d="M850 789h201v304H850Z" id="_7214"/>
    <path d="M1060 789h211v304h-211Z" id="_7218"/>
    <path d="M898 408h211v304H898Z" id="_7114"/>
    <path d="M1828 652h207v111h-207Z" id="_7311"/>
    <path d="M1829 413h206v115h-206z" id="_7307"/>
    <path d="M1829 643h206V535h-206z" id="_7309"/>
    <path d="M1828 864h208v-93h-208z" id="_7313"/>
    <path d="M449 408h162v153H449Z" id="_7104"/>
    <path d="M449 712h162V568H449Z" id="_7012"/>
    <path d="M1119 407h211v305h-211z" id="_7120"/>
    <path d="M1544 408h-206v304h206z" id="_7124"/>
    <path d="M1746 408h-195v304h195z" id="_7128"/>
    <path d="M1279 789h204v304h-204z" id="_7222"/>
    <path d="M1490 789v304h256V789Z" id="_7226"/>
</svg>
