<svg version="1.1" id="svg1" xmlns="http://www.w3.org/2000/svg" viewBox="0 0 2056 1588.7">
  <path d="M30 1563h194l134-234v-26h107v22h1447v-156h-24v-85h150l-2-668h-148v-85h24V176l-1445-2-2 26-107-2-3-187H156l-2 634-63 109v107L28 970Z" id="floor"/>
  <path d="M222 1395H35v151h187Z" id="_8025"/>
  <path d="M222 1390v-95l-187 3v92z" id="_8023"/>
  <path d="M222 1189v104l-187-2v-102z" id="_8021"/>
  <path d="M222 1079v105H35v-105z" id="_8019"/>
  <path d="M222 861v213H35V972l65-111Z" id="_8017"/>
  <path d="M222 856V645h-61L98 754v102z" id="_8013"/>
  <path d="M360 640V535H161v105z" id="_8009"/>
  <path d="M227 645v133h60v-14h73V645Z" id="_8011"/>
  <path d="M161 314v217h199V314Z" id="_8005"/>
  <path d="M2028 754v90h-194v-90Z" id="_8313"/>
  <path d="M1834 645v104h194V645Z" id="_8311"/>
  <path d="M2028 535v105h-194V535Z" id="_8309"/>
  <path d="M2028 531h-194v-90h61v-17h133z" id="_8307"/>
  <path d="M720 334h-90V181h90z" id="_8107"/>
  <path d="M724 181v153h183V183Z" id="_8111"/>
  <path d="M911 334h88V181h-88z" id="_8113"/>
  <path d="M360 310V205h-12V18H166v292Z" id="_8003"/>
  <path d="M1004 334V181h182v153z" id="_8117"/>
  <path d="M1191 334h87V181h-87z" id="_8119"/>
  <path d="M1465 334h-182l2-153h180z" id="_8123"/>
  <path d="M1560 181v153h-90V181Z" id="_8125"/>
  <path d="M1565 181v153h182V181Z" id="_8129"/>
  <path d="M227 1541V783h65v-14h54v14h14v68l-87-2 2 21h85v297h100l-3 128H351l2 32z" id="_8015"/>
  <path d="M365 327V205h153v122z" id="_8103"/>
  <path d="M479 565h61v21h68v124H462l3-53h14z" id="_8012"/>
  <path d="M608 414v146H479v-93h-10v-53z" id="_8104"/>
  <path d="M627 414v294h297V414Z" id="_8108"/>
  <path d="M928 414h153v294H928Z" id="_8114"/>
  <path d="M1086 414h258v294h-258z" id="_8118"/>
  <path d="M1348 414h277v294h-277z" id="_8124"/>
  <path d="M1630 414h122v294h-122z" id="_8130"/>
  <path d="M627 793h297v294H627Z" id="_8208"/>
  <path d="M928 793h153v294H928Z" id="_8214"/>
  <path d="M1086 793h338v294h-338z" id="_8218"/>
  <path d="M1429 793h323v294h-323z" id="_8226"/>
  <path d="M1810 1167v9l95 3v141h-146v-153z" id="_8231"/>
  <path d="m1744 1167 3 153h-136v-153z" id="_8229"/>
  <path d="M1470 1167h136v153h-136z" id="_8225"/>
  <path d="M1465 1167h-134v153h134z" id="_8223"/>
  <path d="M1327 1167v153h-136v-153z" id="_8219"/>
  <path d="M1186 1167h-134l-2 153h136z" id="_8217"/>
  <path d="M1047 1167v153H911v-153z" id="_8213"/>
  <path d="M907 1167H771v153h136z" id="_8211"/>
  <path d="M766 1167v153H630v-153z" id="_8207"/>
</svg>
