<svg version="1.1" id="svg1" xmlns="http://www.w3.org/2000/svg" viewBox="0 0 2056 1588.7">
  <path d="M30 1556h193l135-229v-27l106-2v24h1435v-154h-22v-85h150l-5-663h-145v-84h25V179l-1433-2-2 26H356V20H158v624L93 755v104L30 970Z" id="floor"/>
  <path d="m163 533 198-2-3-215-195 3z" id="_9005"/>
  <path d="m163 538 198-2v106H163Z" id="_9009"/>
  <path d="M168 312V25h181v185h9l3 102z" id="_9003"/>
  <path d="M223 644h-60l-63 111v102h123z" id="_9013"/>
  <path d="M223 861H103L38 970v101h183z" id="_9017"/>
  <path d="m223 1076-185 2v102h185z" id="_9019"/>
  <path d="m38 1187 185-3v104H38Z" id="_9021"/>
  <path d="M223 1293H38v248h185z" id="_9023"/>
  <path d="M616 186v150h-91l-3-150Z" id="_9105"/>
  <path d="M228 777V644h133v133z" id="_9011"/>
  <path d="M626 186h92v150h-92z" id="_9107"/>
  <path d="M722 186v150h179V186Z" id="_9111"/>
  <path d="M995 333V186h-87v147z" id="_9113"/>
  <path d="M1000 184v152h178l3-152z" id="_9117"/>
  <path d="M1272 184v152h-87V184Z" id="_9119"/>
  <path d="M1458 336h-181V186h183z" id="_9123"/>
  <path d="M1549 186v150h-86V186Z" id="_9125"/>
  <path d="M366 319h151v-97h-60v-14h-91Z" id="_9103"/>
  <path d="M1554 186v150h184V186Z" id="_9129"/>
  <path d="M1740 418v291l-191-2V418Z" id="_9128"/>
  <path d="M1545 418v291h-203V418Z" id="_9124"/>
  <path d="M1335 418v291l-121-2-2-289z" id="_9120"/>
  <path d="m1207 418 3 291-128-2V418Z" id="_9118"/>
  <path d="M1077 418v291H626V418Z" id="_9108"/>
  <path d="m361 784-133-2v752l123-210v-31h106v-128h-96z" id="_9015"/>
  <path d="M2015 435h-193l2 96h193z" id="_9307"/>
  <path d="M1824 538h193v102h-193z" id="_9309"/>
  <path d="m2017 644-193 3v198h193z" id="_9313"/>
  <path d="M1750 1165v150h144v-150z" id="_9231"/>
  <path d="M1745 1165h-142v150h142z" id="_9229"/>
  <path d="m1595 1165 3 150-135 2v-152z" id="_9225"/>
  <path d="M1458 1165h-135v150l135 2z" id="_9223"/>
  <path d="M1185 1165h133v150h-133z" id="_9219"/>
  <path d="M1181 1165h-135v150h132" id="_9217"/>
  <path d="m1065 794-3 292h135l545-3V794Z" id="_9220"/>
  <path d="M925 791h133v292H925Z" id="_9214"/>
  <path d="M908 1165h133l2 150H908Z" id="_9213"/>
  <path d="M768 1165v152h133v-154z" id="_9211"/>
  <path d="M763 1165v152H626l2-152z" id="_9207"/>
  <path d="M626 794h294v289H626Z" id="_9208"/>
  <path d="M479 565h60v21h68l-3 123H462l2-53h15z" id="_9012"/>
  <path d="m476 473 3 87h128V415H469v58z" id="_9104"/>
</svg>
