<svg version="1.1" viewBox="-900 -900 3200 2826.4592" id="svg1" xmlns="http://www.w3.org/2000/svg">
  <path d="M-499-123v467h448v465h517v197h1414l1-638h-634v-621H422v-147H-17v147h-483Z" id="floor"/>
  <path d="M-499-252h268v196h-268z" id="_4226"/>
  <path d="M-497-52h161v198h-161z" id="_4225"/>
  <path d="M-497 149h255v47h13v146h-268z" id="_4223a"/>
  <path d="M1379 476h195v137l-42 1v145h-153Z" id="_4103"/>
  <path d="M464-254h782v576H466Z" id="_3214"/>
  <path d="M467 518h336v487H467z" id="_3113"/>
  <path d="M1742 368h138v638h-138z" id="_unexcavated_stair2"/>
  <path d="M-16-400h248v147H-16Z" id="_unexcavated_stair1"/>
 
  <path d="M-51 591h276v218H-51Z" id="_unexcavatedLAVM"/>
  <path d="M111 344h114v105H111Z" id="_unexcavated_ELE"/>
  <path d="M-48 343v244h273V452H109V343Z" id="_excavated1"/>
  <path d="M230 698v110h233V518h-94v180z" id="_excavated2"/>
  <path d="M1577 767h160v239h-160z" id="_4102"/>
  <path d="M1379 767h190v239h-190z" id="_4102a"/>
  <path d="M-226-252h182v196h-182Z" id="_4224"/>
  <path d="M-40-252h175v196H-40Z" id="_4220"/>
  <path d="M-497 147h268v196h-268z" id="_4223"/>
  <path d="M-224 147h184v196h-184Z" id="_4221"/>
  <path d="M-34 147h169v196H-34Z" id="_4219"/>
  <path d="M806 518h568v486H806Z" id="_3109"/>
</svg>
