<svg version="1.1" viewBox="-1230 -800 3200 2826.4592" id="svg1" xmlns="http://www.w3.org/2000/svg">
  <path d="M-495 41v478h460v478h531v201h1298V544h-498V-92H450l3-308-453 3v303l-496 2Z" id="floor"/>
  <path d="M-32 519v250h278V631H128V519z" id="_excavated1"/>
  <path d="M251 874v122h242V676h-97v198z" id="_excavated2"/>
  <path d="M-500-96h749l-3 614h-746Z" id="_6219"/>
  <path d="M0-400h452v154H0Z" id="_6301"/>
  <path d="M462 125h122v207H462z" id="_6214"/>
  <path d="M1461 973h74v103h69v122h-143z" id="_6103"/>
  <path d="M1792 973v225h-186v-124h-68V973z" id="_6101"/>
  <path d="M575 675h272v13h286v-13h273v154h50v369H495V755h80z" id="_6113"/>
  <path d="M0-245h248v147H0z" id="_unexcavated_stair2"/>
  <path d="m1626 545 168-1v319h-168z" id="_unexcavated_stair1"/>
  <path d="M-35 773h281v224H-35z" id="_unexcavatedLAVW"/>
  <path d="M130 520h116v108H130z" id="_unexcavated_ELE"/>
  <path d="M495-92h802v635H551v-92h-51V336h88V121h-93z" id="_6213"/>
</svg>
