<?xml version="1.0" encoding="UTF-8" standalone="no"?>
<svg
   version="1.1"
   viewBox="-500 -400 2986.0894 4473.9682"
   id="svg1"
   sodipodi:docname="walker3temp.svg"
   width="2986.0894"
   height="4473.9683"
   xml:space="preserve"
   inkscape:version="1.3 (0e150ed6c4, 2023-07-21)"
   inkscape:export-filename="walker3temp.svg"
   inkscape:export-xdpi="96"
   inkscape:export-ydpi="96"
   xmlns:inkscape="http://www.inkscape.org/namespaces/inkscape"
   xmlns:sodipodi="http://sodipodi.sourceforge.net/DTD/sodipodi-0.dtd"
   xmlns="http://www.w3.org/2000/svg"
   xmlns:svg="http://www.w3.org/2000/svg"><defs
     id="defs1" /><sodipodi:namedview
     id="namedview1"
     pagecolor="#ffffff"
     bordercolor="#000000"
     borderopacity="0.25"
     inkscape:showpageshadow="2"
     inkscape:pageopacity="0.0"
     inkscape:pagecheckerboard="0"
     inkscape:deskcolor="#d1d1d1"
     inkscape:zoom="0.5"
     inkscape:cx="1235"
     inkscape:cy="1191"
     inkscape:window-width="1920"
     inkscape:window-height="991"
     inkscape:window-x="-9"
     inkscape:window-y="-9"
     inkscape:window-maximized="1"
     inkscape:current-layer="svg1" /><path
     d="m -222.44413,-396.68884 v 152.78663 L -404.89724,-126.6927 -57.039908,396.43124 H 207.86683 v 476.29702 h 458.02744 v 475.56704 h 527.89443 v 200.5624 H 2486.0894 V 897.97686 H 1990.3603 V 264.1252 H 1148.3784 V -136.99887 H 699.95197 V 262.23309 H 187.19435 v -662.2331 z"
     id="floor"
     style="fill:#0000ff" /><path
     d="m -222.60666,-396.09497 408.55488,-1.33789 v 146.1961 h -408.55488 z"
     id="_2230" /><path
     d="M -219.28507,-246.62366 H 185.94822 V -47.328585 H -86.421696"
     id="_2291" /><path
     d="m -315.5902,-184.96794 89.95732,-55.7047 51.62921,73.13758 -87.28149,61.8266 z"
     id="_2231" /><path
     d="m -348.82687,-40.685425 178.76621,-121.607085 75.6579,112.841065 1.337892,144.95098 -112.933872,76.396455 z"
     id="_2228" /><path
     d="M -88.746569,-42.761875 H 185.81217 V 261.16663 h 6.77923 V 394.34881 L -61.629642,397.76372 -207.38304,175.79348 -88.746569,93.835195 Z"
     id="_2226" /><path
     d="m 207.8863,401.06141 451.73549,-3.32158 v 83.03963 h 86.36119 v 159.43605 h 195.97349 v 166.07925 l -146.14972,-3.3216 v 69.7532 H 207.8863 Z"
     id="_2217" /><path
     d="m 797.07338,808.93596 h 142.87453 l -0.003,63.7989 H 797.0735 Z"
     id="_2216"
     sodipodi:nodetypes="ccccc" /><path
     d="m 664.25639,1151.7634 h 317.38738 v -99.6475 h 207.94343 v 295.6355 l -525.32598,-0.014 z"
     id="_2115"
     sodipodi:nodetypes="ccccccc"
     style="stroke-width:1.048" /><path
     d="m 747.94175,481.4955 h 191.2676 v 156.11446 h -191.2676 z"
     id="_2218" /><path
     d="m 803.57252,270.87456 134.29892,0.66897 v 205.88615 l -9.14484,0.052 H 803.74726 V 351.26142 Z"
     id="_2222" /><path
     d="m 810.4061,112.10748 h 212.5814 v 63.1101 h -36.53743 v 29.89425 H 810.4061 Z"
     id="_2219" /><path
     d="M 704.11541,25.746265 V -137.01136 H 1145.8862 V 25.746265 Z"
     id="_2220" /><path
     d="m 1302.0007,474.66445 h 168.004 v 196.85702 h -168.004 z"
     id="_2214a" /><path
     d="m 1298.679,264.90035 h 690.8895 v 504.88081 h -607.8499 v -95.33819 l 93.0044,-0.98773 V 470.83859 h -176.044 z"
     id="_2214.01" /><path
     d="m 1192.3884,886.03666 h 690.8895 v 660.34974 h -690.8895"
     id="_2109" /><path
     d="m 1889.4585,1296.3908 h 87.6066 l 33.6948,0.024 h 144.8642 l 0.024,252.4301 h -266.1736 z"
     id="_2105"
     sodipodi:nodetypes="ccccccc" /><path
     d="m 1999.5333,899.32296 h 486.1516 v 252.44044 h -486.1516 z"
     id="_2204"
     style="stroke-width:0.997825" /><path
     d="m -314,2094.9681 v 156 l -186,119 354.00001,532 H 123 v 484 h 466.00001 v 484 H 1126 v 204 h 1314 v -662 h -504 v -645 h -856 v -149 H 624.00001 v 147 H 102 v -673 z"
     id="floor-8"
     style="fill:#0000ff" /><path
     d="m -436,2457.9681 49,76 162,-109 -105,-161 -60,39 56,86 z"
     id="_3229" /><path
     d="m 126,3157.9681 h 54 v -52 l 532.00001,1 v -340 H 126 Z"
     id="_3222" /><path
     d="m 126,3382.9681 h 586.00001 v -270 H 185 v 49 h -59 z"
     id="_3221" /><path
     d="m 716.00001,3280.9681 h 181 v -399 h -181 v 376 z"
     id="_3219" /><path
     d="m 1936,2766.9681 h -856 v 621 h 394 v -43 h 288 v 43 h 86 v -43 h 86 v -138 z"
     id="_3214" /><path
     d="m 1128,4073.9681 h 294 v -530 h -294 z"
     id="_3113" /><path
     d="m 1428,3582.9681 h 363 v -39 h 75 v 39 h 79 v 491 h -517 z"
     id="_3109" /><path
     d="m 1952,3543.9681 h 204 v 138 l -204,-1 z"
     id="_3104" /><path
     d="m 2276,3411.9681 h 164 v 245 h -164 z"
     id="_3201" /><path
     d="m 2107,3687.9681 h -155 v 386 h 323 v -235 h -168 z"
     id="_3103" /><path
     d="m 626.00001,2617.9681 h 299 v 147 h -299 z"
     id="_unexcavated_stair2" /><path
     d="m 2277,3660.9681 h 163 v 413 h -163 z"
     id="_unexcavated_stair1" /><path
     d="m 589.00001,3642.9681 h 285 v 227 h -285 z"
     id="_unexcavatedLAVW" /><path
     d="m 352.00001,1085.9681 h 118 v 110 h -118 z"
     id="_unexcavated_ELE" /><path
     d="m 188.00001,1084.9681 v 254 h 282 v -140 h -120 v -114 z"
     id="_excavated1" /><path
     d="m 879.00001,3744.9681 v 124 H 1124 v -325 h -98 v 201 z"
     id="_excavated2" /><path
     d="m -493,2370.9681 100,-66 57,84 -99,67 z"
     id="_unexcavated_ELE2" /><path
     d="m 126,2901.9681 h -271.99999 l -242.00001,-363 171,-113 -108,-166 11,-9 v -156 h 416 v 671 h 23 z"
     id="_excavated3" /><path
     d="m 2160.1197,1296.3361 h 78.3487 l 30.134,0.024 h 129.5555 l 0.021,252.4535 h -238.0453 z"
     id="_2103"
     sodipodi:nodetypes="ccccccc"
     style="stroke-width:0.945731" /><path
     style="opacity:0.7;fill:#ff00ff;fill-opacity:0.977215"
     d="m 2402.4793,1151.776 h 83.5937 v 397.082 h -83.5937 z"
     id="path1" /></svg>
