<svg version="1.1" viewBox="-500 -400 3200 2826.4592" id="svg1" xmlns="http://www.w3.org/2000/svg">
  <path d="M-314-397v156l-186 119 354 532h269v484h466v484h537v204h1314V920h-504V275h-856V126H624v147H102v-673Z" id="floor"/>
  <path d="m-436-34 49 76 162-109-105-161-60 39 56 86z" id="_3229"/>
  <path d="M126 666h54v-52l532 1V275H126Z" id="_3222"/>
  <path d="M126 891h586V621H185v49h-59z" id="_3221"/>
  <path d="M716 789h181V390H716v376z" id="_3219"/>
  <path d="M1936 275h-856v621h394v-43h288v43h86v-43h86V715Z" id="_3214"/>
  <path d="M1128 1582h294v-530h-294z" id="_3113"/>
  <path d="M1952 1055h204v138l-204-1z" id="_3104"/>
  <path d="M2276 920h164v245h-164z" id="_3201"/>
  <path d="M2107 1196h-155v386h323v-235h-168z" id="_3103"/>
  <path d="M626 126h299v147H626Z" id="_unexcavated_stair2"/>
  <path d="M2277 1169h163v413h-163z" id="_unexcavated_stair1"/>
  <path d="M589 1151h285v227H589Z" id="_unexcavatedLAVW"/>
  <path d="M756 893h118v110H756Z" id="_unexcavated_ELE"/>
  <path d="M592 893v254h282v-140H754V893Z" id="_excavated1"/>
  <path d="M879 1253v124h245v-325h-98v201z" id="_excavated2"/>
  <path d="m-493-121 100-66 57 84-99 67z" id="_unexcavated_ELE2"/>
  <path d="M126 410h-272L-388 47l171-113-108-166 11-9v-156h416v671h23z" id="_excavated3"/>
  <path d="M1428 1091h363v-39h75v39h79v491h-517z" id="_3109"/>
</svg>
