<svg xmlns="http://www.w3.org/2000/svg" viewBox="0 0 845 275">
  <path d="M0 40v235h845V40H495V0h-75v40z"/>
  <path d="M0 40h74v108H31v3H19v-3H0ZM74 40h58v87H74ZM132 40v87l68-1V40Z"/>
  <path d="m200 40-1 86h71V40ZM270 40h150V0h75v127H270ZM495 40h71v86h-71zM566 40h51v113h-51ZM617 40h36v113h-36zM653 40h52v113h-52zM705 40h49v24h-14v89h-35z"/>
  <path d="M754 40h91v94H740V64h14zM845 134h-49v60h49zM845 194v81h-49v-56h-3v-19h3v-6z"/>
  <path d="M796 275v-38h-46v38zM796 194v6h-3v19h3v18h-61l-8-15 4-2-10-18-3 2-5-8v-2z"/>
  <path d="M713 194h-23v81h60v-38h-15l-8-15 4-2-10-18-3 2-5-8zM690 194v81h-35v-41H555v-40z"/>
  <path d="M655 234v41H555v-41zM555 194v49h-56v-49h39z"/>
  <path d="M555 243v32H448v-87h51v55zM448 188v-32h51v32h-48zM448 275V156H344v119zM344 156h-54v119h54zM290 156H159v119h131zM159 187h-24v48h24zM159 235v40h-49v-40h25zM110 275v-88H69v88zM69 199v76H0v-76h61zM35 199v-51h-4v3H19v-3H0v51z"/>
</svg>
