<svg viewBox="0 0 843 264" xmlns="http://www.w3.org/2000/svg">
  <path d="m0 36 427-1V0h62v35h354v229H0Z"/>
  <path d="M75 36v96H0V36ZM75 36h137v121H75v-54zm137 0 138-1 1 120v2H212z"/>
  <path d="M350 35h77l1 121-77 1Z"/>
  <path d="M427 35V0h62v35h5v56h-18v19h-30V91l-19 1V49Z"/>
  <path d="m425 157 1-65 20-1v19h30V91h22v66h-57z"/>
  <path d="M494 35h71v79h-71V91Zm71 0h69v79h-67 1-3zm69 0h61v79h-61zm61 0h148v117H713v-14 1-23h-18Zm148 117v112H685v-77h28v-35Zm-158 35H554v77h131zm-131 0h-60v49h60z"/>
  <path d="M554 236v28h-79v-38h19v10zm-79 28v-38h-35v38zm-35 0v-38h-39v38zm-39-54v54h-50v-76h50zm-50 54V157h-72v107Zm-72-107v107H147v-76h-4v-4h-19l1 4h-23v-5h5v-20h-5v-6h13v6h20v-6z"/>
  <path d="M147 264v-76H72v76z"/>
  <path d="M72 264v-76h30v-31H75v-25H0v132z"/>
</svg>
