<svg version="1.1" id="svg1" xmlns:xlink="http://www.w3.org/1999/xlink" xmlns="http://www.w3.org/2000/svg" viewBox="0 0 847 228.7">
  <path d="M0 229V1l847-1v229Z" id="floor"/>
  <path d="m0 1 569-1v107l-355 1 14-14-29-28-11-4-13 4-7 9-1 11 6 12 26 25 11 11v95H76V97H0Z" id="_OTB"/>
  <path d="M472 107v96h-5v18h5v8H210v-95l-11-11 15-15z" id="_4133"/>
  <path d="M569 0h89v42h7v76l1 1h-4v6h-18v-6h-75z" id="_4116"/>
  <path d="m666 119-1-1V42h-7V0h189v158H705z" id="_OTB2"/>
  <path d="M847 158v71H710v-9h6l-1-24h-5l-1-6h-23v-14l2-2 4 4 16-14-5-5 2-1z" id="_4103"/>
  <path d="M686 190v39h24v-9h6l-1-24h-5l-1-6z" id="_4107"/>
  <path d="M472 151h33v53h4v17h-4v8h-33v-8h-5v-18h5z" id="_4123"/>
  <path d="M505 199h51v30h-51v-8h4v-17h-4z" id="_4121"/>
  <path d="M505 151h13v-4h23v4h15v48h-51z" id="_4E01"/>
  <path d="M556 151h19v-4h18v4h70l21 22 2 3v53H556z" id="_4S01"/>
  <path d="m199 123 29-29-29-28-11-4-13 4-7 9-1 11 6 12z" id="_4ST03"/>
</svg>
