<svg version="1.1" id="svg1" xmlns="http://www.w3.org/2000/svg" viewBox="0 0 845 273">
  <path d="M0 45h425V0h72v45h348v228H0V46Z" id="floor"/>
  <path d="M0 45h151v60l-14 37-137-1Z" id="_3142"/>
  <path d="M151 45h120v107h-56l13-13-27-25-15-13-25 20 11 21c-7-8 0 0 0 0l27 26 11 11v13h-73v-50l14-37z" id="_3140"/>
  <path d="M137 192v-50c-20-2-40-2-60 0l1 91h59z" id="_3141"/>
  <path d="M78 233v41h132v-82h-73v41z" id="_3139"/>
  <path d="M210 191h64v82h-64v-81z" id="_3135"/>
  <path d="M274 191h55v82h-55z" id="_3133"/>
  <path d="M329 191h58v65h-10v17h-48z" id="_3129"/>
  <path d="M387 191h37v15h21v67h-68v-17h10z" id="_3127"/>
  <path d="M445 206v-9h57v49h-57z" id="_3125"/>
  <path d="M445 246v27l57 1v-28z" id="_3123"/>
  <path d="M502 246h55v28h-55z" id="_3121"/>
  <path d="M557 246v-49h-55v49z" id="_3E01"/>
  <path d="M271 45h179v107H271Z" id="_3132"/>
  <path d="M450 45h116v107H450Z" id="_3118"/>
  <path d="M450 52v-7h-25V0h72v45h-26v7z" id="_3124"/>
  <path d="M566 45h94v53h-94z" id="_3114"/>
  <path d="M660 98v54h-94V98Z" id="_3112"/>
  <path d="M561 152h101v48h-83l-18-1z" id="_3002"/>
  <path d="M660 45h185l1 159H705l-4 4-13 12-3 2-23-22v-48h-2z" id="_3110"/>
  <path d="M725 223v51h-39v-51z" id="_3105"/>
  <path d="M725 223h65v51h-65z" id="_3103"/>
  <path d="M790 223h56v51h-56z" id="_3101"/>
  <path d="M686 268v-45l-24-23h-83l-18-3h-4v77h129z" id="_3ST01"/>
  <path d="m215 152-16 16-28-27-10-20 25-20 15 13 27 25z" id="_3ST03"/>
  <path d="M0 141h78v133l-78-1Z" id="_3ST02"/>
</svg>
