<svg version="1.1" id="svg1" xmlns="http://www.w3.org/2000/svg" viewBox="0 0 1845 596.1">
  <path d="M0 98h928V0h158v98h760v499H0V101Z" id="floor"/>
  <path d="M0 98h330v132l-31 81-299-2Z" id="_3142"/>
  <path d="M330 98h263l-1 235H470l28-29-59-55-33-28-54 44 24 46c-16-18 0 0 0 0l59 57 24 24v28H299V311l31-81z" id="_3140"/>
  <path d="M299 420V311c-44-5-88-4-130-1l1 200h129z" id="_3141"/>
  <path d="M170 510v90h289V420H299v90z" id="_3139"/>
  <path d="M459 418h139v179H459V420Z" id="_3135"/>
  <path d="M598 418h121v179H598Z" id="_3133"/>
  <path d="M719 418h126v142h-22v37H719z" id="_3129"/>
  <path d="M845 418h81v33h46v146H823v-37h22z" id="_3127"/>
  <path d="M972 451v-20h125v107H972Z" id="_3125"/>
  <path d="M972 538v59l125 3v-62z" id="_3123"/>
  <path d="M1097 538h120v62h-120z" id="_3121"/>
  <path d="M1217 538V431h-120v107z" id="_3E01"/>
  <path d="M593 98h390v235H592Z" id="_3132"/>
  <path d="M983 98h253v235H983Z" id="_3118"/>
  <path d="M983 114V98h-55V0h158v98h-57v16z" id="_3124"/>
  <path d="M1236 98h206v116h-206z" id="_3114"/>
  <path d="M1442 214v119h-206V214Z" id="_3112"/>
  <path d="M1225 333h221v105h-181l-40-2z" id="_3002"/>
  <path d="M1442 98h404l2 348h-308l-9 9-28 26-7 5-50-48V333h-4z" id="_3110"/>
  <path d="M1584 488v112h-86V488Z" id="_3105"/>
  <path d="M1584 488h142v112h-142Z" id="_3103"/>
  <path d="M1726 488h122v112h-122z" id="_3101"/>
  <path d="M1498 586v-98l-52-50h-181l-40-7h-8v169h281z" id="_3ST01"/>
  <path d="m470 333-35 35-61-59-22-44 54-44 33 28 59 55z" id="_3ST03"/>
  <path d="M0 309h170v291L0 597Z" id="_3ST02"/>
</svg>
