<svg version="1.1" id="svg1" xmlns:xlink="http://www.w3.org/1999/xlink" xmlns="http://www.w3.org/2000/svg" viewBox="0 0 845.6 273.6">
  <path d="M0 45h425V0h72v45h348v228H0V46Z" id="floor"/>
  <path d="M0 45h151v60l-14 37-137-1Z" id="_3142"/>
  <path d="m151 45 120 1v106h-56l13-13-27-25-15-13-25 20 11 21c-7-8 0 0 0 0l27 26 11 11v13h-73v-50l14-37z" id="_3140"/>
  <path d="M137 192v-50H78v91h59z" id="_3141"/>
  <path d="M78 233h-7v20h7v21h132v-82h-73v41z" id="_3139"/>
  <path d="M210 191h5v-5h18v5h41v82h-64v-81z" id="_3135"/>
  <path d="M274 191h5l-1-5h19v5h32v82h-55z" id="_3133"/>
  <path d="M329 191h6v-4h18v4h34v65h-10v17h-48z" id="_3129"/>
  <path d="M387 191h7v-4h18v4h12v15h21v42h4v18h-4v7h-68v-17h10z" id="_3127"/>
  <path d="M445 206v-9h7v-3h16v3h34v49h-57z" id="_3125"/>
  <path d="M445 246v2h4v18h-4v7l57 1v-28z" id="_3123"/>
  <path d="M502 246h55v28h-55z" id="_3121"/>
  <path d="M557 246v-49h-17v-2h-23v2h-15v49z" id="_3E01"/>
  <path d="m271 46 179-1v107H271z" id="_3132"/>
  <path d="M450 45v7h21v-7h95v107H450Z" id="_3118"/>
  <path d="M450 52v-7h-25V0h72v45h-26v7z" id="_3124"/>
  <path d="M566 45h94v53h-94z" id="_3114"/>
  <path d="M660 98v54h-94V98Z" id="_3112"/>
  <path d="M561 152h101v24h5v18h-5v6h-83v-6h-18z" id="_3002"/>
  <path d="M660 45h185l1 159h-13v6h-18v-6H705l-4 4 4 3-14 12-3-3-3 2-23-22v-6h5v-18h-5v-24h-2z" id="_3110"/>
  <path d="M725 223v51h-39v-51z" id="_3105"/>
  <path d="M725 223h65v51h-65z" id="_3103"/>
  <path d="M790 223h56v51h-56z" id="_3101"/>
  <path d="M686 268v-45l-24-23h-83v-6h-18v3h-4v77h129z" id="_3ST01"/>
  <path d="m215 152-16 16-28-27-10-20 25-20 15 13 27 25z" id="_3ST03"/>
  <path d="m0 141 78 1v91h-7v20h7v21l-78-1z" id="_3ST02"/>
</svg>
