<svg version="1.1" id="svg1" xmlns="http://www.w3.org/2000/svg" viewBox="0 0 1847 499.4">
  <path d="M0 500V2l1847-2v500z" id="floor"/>
  <path d="m0 2 1241-2v234l-774 2 30-31-63-61-24-9-28 9-16 20-2 24 13 26 57 55 24 24v207H166V212H0Z" id="_OTB"/>
  <path d="M1029 234v209h-11v40h11v17H458V293l-24-24 33-33z" id="_4133"/>
  <path d="M1241 0h194v92h15v166l2 2h-211z" id="_4116"/>
  <path d="m1452 260-2-2V92h-15V0h412v345l-311 1z" id="_OTB2"/>
  <path d="M1847 345v155h-299v-72l-2-13h-50v-31l37-37 4-2z" id="_4103"/>
  <path d="M1496 415v85h52v-19h13l-2-53h-11l-2-13z" id="_4107"/>
  <path d="M1029 330h72v116h9v37h-9v17h-72v-17h-11v-40h11z" id="_4123"/>
  <path d="M1101 435h111v65h-111v-17h9v-37h-9z" id="_4121"/>
  <path d="M1101 330h111v105h-111z" id="_4E01"/>
  <path d="M1212 330h233l46 48 5 6v116h-284Z" id="_4S01"/>
  <path d="m434 269 63-64-63-61-24-9-28 9-16 20-2 24 13 26z" id="_4ST03"/>
</svg>

