<svg version="1.1" id="svg1" xmlns="http://www.w3.org/2000/svg" viewBox="0 0 845 275">
  <path d="M0 40v235h845V40H495V0h-75v40z" id="floor"/>
  <path d="M0 40h74v108H0Z" id="_1148"/>
  <path d="M74 40h58v87H74Z" id="_1144"/>
  <path d="M132 40v87l68-1V40Z" id="_1140"/>
  <path d="m200 40-1 86h71V40Z" id="_1136"/>
  <path d="M270 40h150V0h75v127H270Z" id="_1122"/>
  <path d="M495 40h71v86h-71z" id="_1120"/>
  <path d="M566 40h51v113h-51Z" id="_1118"/>
  <path d="M617 40h36v113h-36z" id="_1114"/>
  <path d="M653 40h52v113h-52z" id="_1112"/>
  <path d="M705 40h49v24h-14v89h-35z" id="_1110"/>
  <path d="M754 40h91v94H740V64h14z" id="_1108"/>
  <path d="M845 134h-49v60h49z" id="_1001"/>
  <path d="M845 194v81h-49v-81z" id="_1103"/>
  <path d="M796 275v-38h-46v38z" id="_1105"/>
  <path d="M796 194v43h-61l-8-15-9-18-5-8v-2z" id="_1107"/>
  <path d="M713 194h-23v81h60v-38h-15l-8-15-9-18-5-8z" id="_1109"/>
  <path d="M690 194v81h-35v-41H555v-40z" id="_1ST01"/>
  <path d="M655 234v41H555v-41z" id="_1123"/>
  <path d="M555 194v49h-56v-49h39z" id="_1E01"/>
  <path d="M555 243v32H448v-87h51v55z" id="_1115"/>
  <path d="M448 188v-32h51v32h-48z" id="_1003A"/>
  <path d="M448 275V156H344v119z" id="_1129"/>
  <path d="M344 156h-54v119h54z" id="_1131"/>
  <path d="M290 156H159v119h131z" id="_1137"/>
  <path d="M159 187h-24v48h24z" id="_1139"/>
  <path d="M159 235v40h-49v-40h25z" id="_1141"/>
  <path d="M110 275v-88H69v88z" id="_1143"/>
  <path d="M69 199v76H0v-76h61z" id="_1ST02"/>
  <path d="M35 199v-51H0v51z" id="_1148A"/>
</svg>
