<svg xmlns="http://www.w3.org/2000/svg" viewBox="0 0 847 229">
  <path d="M0 229V1l847-1v229z"/>
  <path d="m0 1 569-1v107l-355 1 14-14-29-28-11-4-13 4-7 9-1 11 6 12 26 25 11 11v95H76V97H0Z"/>
  <path d="M472 107v96h-5v18h5v8H210v-95l-11-11 15-15zM569 0h89v42h7v76l1 1h-97z"/>
  <path d="m666 119-1-1V42h-7V0h189v158H705zM847 158v71H710v-33l-1-6h-23v-14l17-17 2-1z"/>
  <path d="M686 190v39h24v-9h6l-1-24h-5l-1-6zM472 151h33v53h4v17h-4v8h-33v-8h-5v-18h5z"/>
  <path d="M505 199h51v30h-51v-8h4v-17h-4zM505 151h51v48h-51zM556 151h107l21 22 2 3v53H556ZM199 123l29-29-29-28-11-4-13 4-7 9-1 11 6 12z"/>
</svg>

