<svg version="1.1" id="svg1" xmlns:xlink="http://www.w3.org/1999/xlink" xmlns="http://www.w3.org/2000/svg" viewBox="0 0 845 275">
  <path d="M0 40v235h845V40H495V0h-75v40z" id="floor"/>
  <path d="M0 40h74v108H56v3H38v-3h-7v3H19v-3H0Z" id="_1148"/>
  <path d="M74 40h58v87H74V40Z" id="_1144"/>
  <path d="M132 40v87l68-1V40Z" id="_1140"/>
  <path d="M200 40v87l70-1V40Z" id="_1136"/>
  <path d="M270 40h150V0h75v127H270Z" id="_1122"/>
  <path d="M495 40h71v86h-38v3h-19v-3h-14V40Z" id="_1120"/>
  <path d="M566 40h51v113h-26v3h-20v-3h-5z" id="_1118"/>
  <path d="M617 40h36v113h-13v3h-20v-3h-3z" id="_1114"/>
  <path d="M653 40h52v113h-29v3h-20v-3h-3z" id="_1112"/>
  <path d="M705 40h49v24h-14v89h-11v3h-20v-3h-4z" id="_1110"/>
  <path d="M754 40h91v94h-81v4h-20v-4h-4V64h14z" id="_1108"/>
  <path d="M845 134h-49v12h-3v22h3v2h-3v21h3v3h49z" id="_1001"/>
  <path d="M845 194v81h-49v-56h-3v-19h3v-6z" id="_1103"/>
  <path d="M796 275v-38h-10l1-3h-16v3h-21v38z" id="_1105"/>
  <path d="M796 194v6h-3v19h3v18h-10l1-3h-16v3h-36l-8-15 4-2-10-18-3 2-5-8v-2z" id="_1107"/>
  <path d="M713 194h-23v81h60v-38h-15l-8-15 4-2-10-18-3 2-5-8z" id="_1109"/>
  <path d="M690 194v81h-35v-41H555v-40z" id="_1ST01"/>
  <path d="M655 234v41H555v-41z" id="_1123"/>
  <path d="M555 194v49h-56v-49h16v-3h23v3z" id="_1E01"/>
  <path d="M555 243v32H448v-87h3v-3h19v3h29v55z" id="_1115"/>
  <path d="M448 188v-32h1v-1h50v33h-29v-3h-19v3z" id="_1003A"/>
  <path d="M448 275V156h-69v-4h-20v4h-15v119z" id="_1129"/>
  <path d="M344 156h-3v-4h-21v4h-30v119h54z" id="_1131"/>
  <path d="M290 156H182v-4h-20v4h-3v119h131Z" id="_1137"/>
  <path d="m159 187-24 1v20h-4v18h4v9h24z" id="_1139"/>
  <path d="M159 235v40h-49v-40h4v-5h18v5h3z" id="_1141"/>
  <path d="M110 275v-63h4v-20h-4v-5H69v88Z" id="_1143"/>
  <path d="M69 199v76H0v-76h41v-5h20v5Z" id="_1ST02"/>
  <path d="M35 199v-51h-4v3H19v-3H0v51Z" id="_1148A"/>
</svg>
