<svg xmlns="http://www.w3.org/2000/svg" viewBox="0 0 845 273">
  <path d="M0 45h425V0h72v45h348v228H0V46Z"/>
  <path d="M0 45h151v60l-14 37-137-1Z"/>
  <path d="M151 45h120v107h-56l13-13-27-25-15-13-25 20 11 21c-7-8 0 0 0 0l27 26 11 11v13h-73v-50l14-37zM137 192v-50c-20-2-40-2-60 0l1 91h59z"/>
  <path d="M78 233v41h132v-82h-73v41zM210 191h64v82h-64v-81zM274 191h55v82h-55zM329 191h58v65h-10v17h-48z"/>
  <path d="M387 191h37v15h21v67h-68v-17h10zM445 206v-9h57v49h-57zM445 246v27l57 1v-28zM502 246h55v28h-55zM557 246v-49h-55v49zM271 45h179v107H271ZM450 45h116v107H450Z"/>
  <path d="M450 52v-7h-25V0h72v45h-26v7zM566 45h94v53h-94zM660 98v54h-94V98ZM561 152h101v48h-83l-18-1z"/>
  <path d="M660 45h185l1 159H705l-4 4-13 12-3 2-23-22v-48h-2zM725 223v51h-39v-51zM725 223h65v51h-65zM790 223h56v51h-56zM686 268v-45l-24-23h-83l-18-3h-4v77h129zM215 152l-16 16-28-27-10-20 25-20 15 13 27 25zM0 141h78v133l-78-1Z"/>
</svg>
